<?xml version="1.0" encoding="UTF-8" standalone="no"?>
<svg width="96px" height="92px" viewBox="0 0 96 92" version="1.1" xmlns="http://www.w3.org/2000/svg" xmlns:xlink="http://www.w3.org/1999/xlink" xmlns:sketch="http://www.bohemiancoding.com/sketch/ns">
    <!-- Generator: Sketch 3.2.2 (9983) - http://www.bohemiancoding.com/sketch -->
    <title>headphones</title>
    <desc>Created with Sketch.</desc>
    <defs></defs>
    <g id="Page-1" stroke="none" stroke-width="1" fill="none" fill-rule="evenodd" sketch:type="MSPage">
        <g id="headphones" sketch:type="MSLayerGroup" transform="translate(-2.000000, -4.000000)">
            <g id="Page-1">
                <g id="noun_12188_cc">
                    <g id="Captions"></g>
                    <g id="Your_Icon" transform="translate(2.000000, 4.000000)" fill="#29AED9" sketch:type="MSShapeGroup">
                        <path d="M92.751,45.152 C92.751,20.477 72.676,0.402 48,0.402 C23.324,0.402 3.249,20.478 3.249,45.152 L3.249,57.427 C1.667,60.21 0.749,63.421 0.749,66.847 C0.749,76.746 8.312,84.913 17.961,85.874 C18.906,89.165 21.908,91.597 25.5,91.597 C29.841,91.597 33.376,88.062 33.376,83.722 L33.376,49.972 C33.376,45.63 29.841,42.095 25.5,42.095 C21.908,42.095 18.906,44.527 17.961,47.818 C17.331,47.882 16.709,47.977 16.096,48.101 L16.096,45.152 C16.096,27.56 30.408,13.248 48,13.248 C65.592,13.248 79.904,27.56 79.904,45.152 L79.904,48.101 C79.291,47.977 78.669,47.882 78.039,47.818 C77.094,44.527 74.092,42.095 70.5,42.095 C66.159,42.095 62.624,45.63 62.624,49.972 L62.624,83.722 C62.624,88.062 66.159,91.597 70.5,91.597 C74.092,91.597 77.094,89.165 78.039,85.874 C87.687,84.913 95.251,76.746 95.251,66.847 C95.251,63.421 94.333,60.21 92.751,57.427 L92.751,45.152 L92.751,45.152 Z M90.5,69.481 C90.31,70.519 90.02,71.522 89.621,72.472 C89.291,73.26 88.887,74.009 88.43,74.722 C86.213,78.172 82.59,80.626 78.376,81.281 L78.376,52.414 C78.894,52.494 79.404,52.6 79.904,52.736 C80.68,52.943 81.432,53.209 82.152,53.537 C82.941,53.895 83.695,54.315 84.401,54.801 C85.912,55.844 87.223,57.157 88.249,58.678 C89.357,60.317 90.131,62.194 90.5,64.213 C90.656,65.07 90.749,65.946 90.749,66.848 C90.749,67.748 90.656,68.625 90.5,69.481 L90.5,69.481 L90.5,69.481 Z M67.126,83.723 L67.126,49.973 C67.126,48.112 68.64,46.598 70.5,46.598 C72.36,46.598 73.874,48.112 73.874,49.973 L73.874,83.723 C73.874,85.582 72.36,87.096 70.5,87.096 C68.64,87.096 67.126,85.582 67.126,83.723 L67.126,83.723 L67.126,83.723 Z M88.249,52.072 C87.08,51.107 85.783,50.299 84.401,49.633 L84.401,45.153 C84.401,25.081 68.073,8.753 48,8.753 C27.927,8.753 11.599,25.081 11.599,45.153 L11.599,49.633 C10.217,50.299 8.92,51.108 7.751,52.072 L7.751,45.152 C7.751,22.961 25.808,4.904 48,4.904 C70.192,4.904 88.249,22.961 88.249,45.152 L88.249,52.072 L88.249,52.072 Z M28.874,49.973 L28.874,83.723 C28.874,85.582 27.36,87.096 25.5,87.096 C23.64,87.096 22.126,85.582 22.126,83.723 L22.126,49.973 C22.126,48.112 23.64,46.598 25.5,46.598 C27.36,46.598 28.874,48.111 28.874,49.973 L28.874,49.973 L28.874,49.973 Z M17.624,81.281 C13.41,80.627 9.787,78.173 7.57,74.722 C7.113,74.009 6.709,73.26 6.379,72.472 C5.98,71.522 5.69,70.52 5.5,69.481 C5.344,68.625 5.251,67.748 5.251,66.847 C5.251,65.946 5.344,65.07 5.5,64.212 C5.869,62.192 6.643,60.316 7.751,58.677 C8.776,57.156 10.088,55.843 11.599,54.8 C12.305,54.315 13.059,53.895 13.848,53.536 C14.568,53.208 15.32,52.942 16.096,52.735 C16.596,52.598 17.107,52.493 17.624,52.413 L17.624,81.281 L17.624,81.281 Z" id="Shape"></path>
                    </g>
                </g>
            </g>
        </g>
    </g>
</svg>